<?xml version="1.0" encoding="UTF-8" standalone="no"?>
<svg
   xmlns:dc="http://purl.org/dc/elements/1.1/"
   xmlns:cc="http://creativecommons.org/ns#"
   xmlns:rdf="http://www.w3.org/1999/02/22-rdf-syntax-ns#"
   xmlns:svg="http://www.w3.org/2000/svg"
   xmlns="http://www.w3.org/2000/svg"
   xmlns:sodipodi="http://sodipodi.sourceforge.net/DTD/sodipodi-0.dtd"
   xmlns:inkscape="http://www.inkscape.org/namespaces/inkscape"
   inkscape:version="1.0 (4035a4fb49, 2020-05-01)"
   sodipodi:docname="accessnow-logo.svg"
   xml:space="preserve"
   style="enable-background:new 0 0 349 66.9;"
   viewBox="0 0 349 66.9"
   y="0px"
   x="0px"
   id="Layer_1"
   version="1.1"><metadata
   id="metadata973"><rdf:RDF><cc:Work
       rdf:about=""><dc:format>image/svg+xml</dc:format><dc:type
         rdf:resource="http://purl.org/dc/dcmitype/StillImage" /></cc:Work></rdf:RDF></metadata><defs
   id="defs971" /><sodipodi:namedview
   inkscape:current-layer="Layer_1"
   inkscape:cy="33.45"
   inkscape:cx="174.5"
   inkscape:zoom="3.6160458"
   showgrid="false"
   id="namedview969"
   inkscape:window-height="480"
   inkscape:window-width="640"
   inkscape:pageshadow="2"
   inkscape:pageopacity="0"
   guidetolerance="10"
   gridtolerance="10"
   objecttolerance="10"
   borderopacity="1"
   bordercolor="#666666"
   pagecolor="#ffffff" />
<style
   id="style922"
   type="text/css">
	.st0{fill:#77C043;}
</style>
<g
   id="g966">
	<g
   id="g946">
		<g
   id="g936">
			<path
   style="fill:#ffffff"
   id="path924"
   d="m 97.9,49.5 v -2.8 c -2.2,2.2 -4.2,3.1 -7.9,3.1 -3.6,0 -6.3,-0.9 -8.2,-2.8 -1.7,-1.8 -2.7,-4.4 -2.7,-7.2 0,-5.1 3.5,-9.3 11,-9.3 h 7.6 v -1.6 c 0,-3.5 -1.7,-5.1 -6,-5.1 -3.1,0 -4.5,0.7 -6.2,2.7 l -5.1,-5 C 83.6,18 86.7,17 92.1,17 c 9,0 13.7,3.8 13.7,11.4 V 49.6 H 97.9 Z M 97.7,36 h -6.4 c -2.9,0 -4.5,1.4 -4.5,3.6 0,2.2 1.5,3.7 4.6,3.7 2.2,0 3.6,-0.2 5.1,-1.5 0.9,-0.8 1.2,-2.1 1.2,-4.1 V 36 Z" />
			<path
   style="fill:#ffffff"
   id="path926"
   d="m 123.1,49.9 c -6.4,0 -14.4,-3.5 -14.4,-16.5 0,-13 8,-16.4 14.4,-16.4 4.4,0 7.8,1.4 10.6,4.3 l -5.4,5.4 c -1.7,-1.8 -3.1,-2.5 -5.2,-2.5 -1.9,0 -3.4,0.7 -4.6,2.1 -1.2,1.5 -1.8,3.7 -1.8,7.1 0,3.4 0.6,5.6 1.8,7.2 1.2,1.4 2.7,2.1 4.6,2.1 2.1,0 3.5,-0.7 5.2,-2.5 l 5.4,5.4 c -2.9,2.9 -6.2,4.3 -10.6,4.3 z" />
			<path
   style="fill:#ffffff"
   id="path928"
   d="M 148.4,49.9 C 142,49.9 134,46.4 134,33.4 c 0,-13 8,-16.4 14.4,-16.4 4.4,0 7.8,1.4 10.6,4.3 l -5.4,5.4 c -1.7,-1.8 -3.1,-2.5 -5.2,-2.5 -1.9,0 -3.4,0.7 -4.6,2.1 -1.2,1.5 -1.8,3.7 -1.8,7.1 0,3.4 0.6,5.6 1.8,7.2 1.2,1.4 2.7,2.1 4.6,2.1 2.1,0 3.5,-0.7 5.2,-2.5 l 5.4,5.4 c -2.9,2.9 -6.2,4.3 -10.6,4.3 z" />
			<path
   style="fill:#ffffff"
   id="path930"
   d="m 166.9,36 c 0,4.1 2.5,7.2 7,7.2 3.5,0 5.2,-1 7.3,-3 l 4.9,4.8 c -3.3,3.3 -6.4,5.1 -12.2,5.1 -7.6,0 -14.9,-3.5 -14.9,-16.5 0,-10.5 5.7,-16.4 14,-16.4 9,0 14,6.5 14,15.4 V 36 Z m 11.5,-9 c -0.9,-1.9 -2.7,-3.3 -5.4,-3.3 -2.7,0 -4.5,1.4 -5.4,3.3 -0.5,1.2 -0.7,2 -0.7,3.5 h 12.2 c 0,-1.4 -0.2,-2.3 -0.7,-3.5 z" />
			<path
   style="fill:#ffffff"
   id="path932"
   d="m 202.4,49.9 c -5.1,0 -9.6,-0.6 -13.7,-4.6 L 194,40 c 2.7,2.7 6.1,3 8.6,3 2.8,0 5.7,-0.9 5.7,-3.3 0,-1.6 -0.9,-2.7 -3.4,-3 l -5.1,-0.5 c -5.8,-0.6 -9.4,-3.1 -9.4,-9 0,-6.7 5.9,-10.2 12.4,-10.2 5,0 9.2,0.9 12.3,3.8 l -4.9,5 c -1.9,-1.7 -4.7,-2.2 -7.5,-2.2 -3.2,0 -4.6,1.5 -4.6,3.1 0,1.2 0.5,2.5 3.3,2.8 l 5.1,0.5 c 6.4,0.6 9.6,4 9.6,9.4 0,7.1 -6.1,10.5 -13.7,10.5 z" />
			<path
   style="fill:#ffffff"
   id="path934"
   d="m 230.8,49.9 c -5.1,0 -9.6,-0.6 -13.7,-4.6 l 5.2,-5.2 c 2.7,2.7 6.1,3 8.6,3 2.8,0 5.7,-0.9 5.7,-3.3 0,-1.6 -0.9,-2.7 -3.4,-3 l -5.1,-0.5 c -5.8,-0.6 -9.4,-3.1 -9.4,-9 0,-6.7 5.9,-10.2 12.4,-10.2 5,0 9.2,0.9 12.3,3.8 l -4.9,5 c -1.9,-1.7 -4.7,-2.2 -7.5,-2.2 -3.2,0 -4.6,1.5 -4.6,3.1 0,1.2 0.5,2.5 3.3,2.8 l 5.1,0.5 c 6.4,0.6 9.6,4 9.6,9.4 0,7 -6.1,10.4 -13.6,10.4 z" />
		</g>
		<g
   id="g944">
			<path
   style="fill:#ffffff"
   id="path938"
   d="M 269.4,49.5 V 29.8 c 0,-5.6 -3,-8.5 -7.8,-8.5 -4.8,0 -7.9,2.9 -7.9,8.5 V 49.4 H 249 V 17.6 h 4.7 v 3.5 c 2.3,-2.6 5.4,-3.9 8.9,-3.9 3.4,0 6.2,1 8.2,3 2.3,2.2 3.3,5.2 3.3,8.9 v 20.4 z" />
			<path
   style="fill:#ffffff"
   id="path940"
   d="m 299.8,46.2 c -2.2,2.2 -5.2,3.6 -9.1,3.6 -3.9,0 -6.9,-1.4 -9.1,-3.6 -3.2,-3.3 -3.9,-7.8 -3.9,-12.7 0,-4.9 0.6,-9.4 3.9,-12.7 2.2,-2.2 5.2,-3.6 9.1,-3.6 3.9,0 6.9,1.4 9.1,3.6 3.2,3.3 3.9,7.8 3.9,12.7 0,4.9 -0.7,9.4 -3.9,12.7 z m -3.3,-22.5 c -1.5,-1.5 -3.6,-2.3 -5.8,-2.3 -2.3,0 -4.3,0.8 -5.8,2.3 -2.3,2.3 -2.6,6.3 -2.6,9.9 0,3.6 0.3,7.5 2.6,9.9 1.5,1.5 3.5,2.3 5.8,2.3 2.3,0 4.3,-0.8 5.8,-2.3 2.3,-2.3 2.5,-6.3 2.5,-9.9 0,-3.6 -0.2,-7.6 -2.5,-9.9 z" />
			<path
   style="fill:#ffffff"
   id="path942"
   d="m 338.9,49.5 h -4.3 l -8.4,-24.8 -8.3,24.8 h -4.3 L 303.5,17.6 h 5.1 l 7.3,25.6 8.4,-25.6 h 4 l 8.4,25.6 7.3,-25.6 h 5.1 z" />
		</g>
	</g>
	<g
   id="g964">
		<path
   id="path948"
   d="M 5.7,43.2 C 4.1,42.9 2.5,42.7 1,42.3 3.7,53.9 12.4,63.2 23.6,67 c 0,-0.1 0,-0.2 0,-0.4 0,-2.7 0.9,-5.3 2.4,-7.3 C 24.2,57.2 22.4,55 20.8,52.6 19.5,53.2 18,53.5 16.5,53.5 10.6,53.5 5.9,48.9 5.7,43.2 Z"
   class="st0" />
		<path
   id="path950"
   d="m 49.5,39.7 c 4.9,3.8 10,7.3 15.4,10.3 2.4,-4.7 3.8,-10 3.8,-15.7 0,-2.3 -0.2,-4.5 -0.6,-6.6 -2.3,1.7 -4.6,3.3 -7.1,4.8 -1,3.8 -2.3,7.5 -3.9,11.1 -0.4,-0.3 -0.8,-0.5 -1.2,-0.8 1.3,-3 2.4,-6.1 3.3,-9.3 -9.6,5.5 -20.5,9 -32,10.2 -0.3,3.5 -2.3,6.5 -5.2,8.2 1.5,2.2 3.1,4.2 4.8,6.2 2.3,-2.4 5.5,-3.9 9,-3.9 2,0 3.9,0.5 5.6,1.3 1.6,-4.6 2.8,-9.4 3.8,-14.2 0.5,-0.2 1,-0.4 1.6,-0.6 -1,5.3 -2.4,10.5 -4.1,15.5 1.2,0.8 2.3,1.8 3.2,3 3.1,-3.9 5.8,-8.1 8.1,-12.6 0.4,0.3 0.8,0.5 1.2,0.8 -2.4,4.7 -5.2,9 -8.5,13.1 0.9,1.6 1.4,3.3 1.5,5.2 6.8,-3 12.4,-8.1 16,-14.5 C 58.5,48 53,44.3 47.9,40.3 c 0.5,-0.2 1,-0.4 1.6,-0.6 z"
   class="st0" />
		<path
   id="path952"
   d="m 63.4,17.8 c -0.3,4.3 -0.9,8.6 -1.9,12.7 2.2,-1.3 4.2,-2.8 6.2,-4.3 -0.8,-3.1 -1.9,-6 -3.4,-8.7 -0.3,0.1 -0.6,0.2 -0.9,0.3 z"
   class="st0" />
		<path
   id="path954"
   d="m 7,22.5 c -2,1.1 -4,2.2 -5.9,3.4 -0.7,2.7 -1,5.5 -1,8.4 0,2.2 0.2,4.3 0.6,6.4 1.7,0.4 3.4,0.7 5.1,1 0.3,-3.6 2.4,-6.6 5.4,-8.3 C 8.9,27 7.6,20.3 7.2,13.3 4.8,16.4 2.9,20 1.6,23.9 3.3,22.9 4.9,22 6.7,21.1 6.8,21.5 6.9,22 7,22.5 Z"
   class="st0" />
		<path
   id="path956"
   d="m 59.1,14.3 c 0,-0.2 0,-0.3 0.1,-0.5 -2.2,-0.3 -4.5,-0.6 -6.7,-0.7 -0.3,1.9 -1.6,3.6 -3.3,4.4 0,6.2 -0.5,12.4 -1.4,18.4 -0.5,0.2 -1,0.4 -1.6,0.6 -0.2,0.1 -0.3,0.1 -0.5,0.2 -0.5,0.2 -1,0.4 -1.6,0.6 -4.9,-4.2 -9.4,-8.8 -13.6,-13.7 -1.2,0.7 -2.6,1.2 -4,1.2 -4.1,0 -7.4,-3.2 -7.7,-7.2 -2.7,0.9 -5.3,2 -7.8,3.1 -0.1,-0.5 -0.2,-1 -0.2,-1.5 2.6,-1.2 5.4,-2.3 8.1,-3.2 0.3,-1.9 1.2,-3.5 2.5,-4.7 -1.4,-2.2 -2.8,-4.4 -4,-6.7 -3.3,1.9 -6.3,4.3 -8.8,7.1 0.2,7.4 1.5,14.5 3.8,21.1 1.3,-0.5 2.6,-0.8 4.1,-0.8 5.8,0 10.5,4.6 10.8,10.3 11.8,-1.2 22.8,-5 32.5,-10.8 1.1,-4.4 1.9,-9 2.2,-13.7 -1.7,-0.4 -2.9,-1.8 -2.9,-3.5 z"
   class="st0" />
		<path
   id="path958"
   d="m 52.4,11.6 c 2.4,0.2 4.8,0.4 7.2,0.8 0.2,-0.3 0.3,-0.5 0.6,-0.7 C 56.9,8 52.8,5 48.2,2.9 c 0.1,1.2 0.3,2.3 0.4,3.5 2.1,0.8 3.7,2.8 3.8,5.2 z"
   class="st0" />
		<path
   id="path960"
   d="m 46.5,18 c -3,0 -5.4,-2.2 -5.9,-5 -2.4,0.2 -4.7,0.4 -7,0.8 0.4,0.9 0.7,2 0.7,3.1 0,2.2 -1,4.2 -2.5,5.6 4.3,5 8.9,9.7 14,14 0.2,-0.1 0.3,-0.1 0.5,-0.2 1,-6 1.5,-12.2 1.5,-18.5 C 47.3,18 46.9,18 46.5,18 Z"
   class="st0" />
		<path
   id="path962"
   d="m 32.7,12.5 c 2.5,-0.4 5.1,-0.7 7.7,-0.9 0.2,-3.1 2.8,-5.6 6,-5.6 0.2,0 0.4,0 0.7,0 C 47,4.7 46.8,3.5 46.7,2.2 42.9,0.8 38.7,0 34.3,0 c -5.7,0 -11,1.4 -15.7,3.8 1.2,2.2 2.6,4.4 3.9,6.5 1.1,-0.7 2.5,-1.1 3.9,-1.1 2.7,0 4.9,1.3 6.3,3.3 z"
   class="st0" />
	</g>
</g>
</svg>
